<?xml version="1.0" encoding="utf-8" standalone="no"?>
<!DOCTYPE svg PUBLIC "-//W3C//DTD SVG 1.1//EN"
  "http://www.w3.org/Graphics/SVG/1.1/DTD/svg11.dtd">
<svg xmlns:xlink="http://www.w3.org/1999/xlink" width="326.237pt" height="318.190125pt" viewBox="0 0 326.237 318.190125" xmlns="http://www.w3.org/2000/svg" version="1.1">
 <metadata>
  <rdf:RDF xmlns:dc="http://purl.org/dc/elements/1.1/" xmlns:cc="http://creativecommons.org/ns#" xmlns:rdf="http://www.w3.org/1999/02/22-rdf-syntax-ns#">
   <cc:Work>
    <dc:type rdf:resource="http://purl.org/dc/dcmitype/StillImage"/>
    <dc:date>2026-07-13T11:25:37.006436</dc:date>
    <dc:format>image/svg+xml</dc:format>
    <dc:creator>
     <cc:Agent>
      <dc:title>Matplotlib v3.10.8, https://matplotlib.org/</dc:title>
     </cc:Agent>
    </dc:creator>
   </cc:Work>
  </rdf:RDF>
 </metadata>
 <defs>
  <style type="text/css">*{stroke-linejoin: round; stroke-linecap: butt}</style>
 </defs>
 <g id="figure_1">
  <g id="patch_1">
   <path d="M 0 318.190125 
L 326.237 318.190125 
L 326.237 0 
L 0 0 
L 0 318.190125 
z
" style="fill: none"/>
  </g>
  <g id="axes_1">
   <g id="patch_2">
    <path d="M 299.35575 159.095062 
C 299.35575 141.622309 295.913998 124.319455 289.227465 108.176736 
C 282.540932 92.034016 272.739653 77.365365 260.38455 65.010263 
C 248.029447 52.65516 233.360796 42.853881 217.218077 36.167347 
C 201.075357 29.480814 183.772504 26.039062 166.29975 26.039062 
C 148.826996 26.039062 131.524143 29.480814 115.381423 36.167347 
C 99.238704 42.853881 84.570053 52.65516 72.21495 65.010263 
C 59.859847 77.365365 50.058568 92.034016 43.372035 108.176736 
C 36.685502 124.319455 33.24375 141.622309 33.24375 159.095062 
C 33.24375 176.567816 36.685502 193.87067 43.372035 210.013389 
C 50.058568 226.156109 59.859847 240.82476 72.21495 253.179862 
C 84.570053 265.534965 99.238704 275.336244 115.381423 282.022778 
C 131.524143 288.709311 148.826996 292.151062 166.29975 292.151062 
C 183.772504 292.151062 201.075357 288.709311 217.218077 282.022778 
C 233.360796 275.336244 248.029447 265.534965 260.38455 253.179862 
C 272.739653 240.82476 282.540932 226.156109 289.227465 210.013389 
C 295.913998 193.87067 299.35575 176.567816 299.35575 159.095062 
M 166.29975 159.095062 
C 166.29975 159.095062 166.29975 159.095062 166.29975 159.095062 
C 166.29975 159.095062 166.29975 159.095062 166.29975 159.095062 
C 166.29975 159.095062 166.29975 159.095062 166.29975 159.095062 
C 166.29975 159.095062 166.29975 159.095062 166.29975 159.095062 
C 166.29975 159.095062 166.29975 159.095062 166.29975 159.095062 
C 166.29975 159.095062 166.29975 159.095062 166.29975 159.095062 
C 166.29975 159.095062 166.29975 159.095062 166.29975 159.095062 
C 166.29975 159.095062 166.29975 159.095062 166.29975 159.095062 
C 166.29975 159.095062 166.29975 159.095062 166.29975 159.095062 
C 166.29975 159.095062 166.29975 159.095062 166.29975 159.095062 
C 166.29975 159.095062 166.29975 159.095062 166.29975 159.095062 
C 166.29975 159.095062 166.29975 159.095062 166.29975 159.095062 
C 166.29975 159.095062 166.29975 159.095062 166.29975 159.095062 
C 166.29975 159.095062 166.29975 159.095062 166.29975 159.095062 
C 166.29975 159.095062 166.29975 159.095062 166.29975 159.095062 
C 166.29975 159.095062 166.29975 159.095062 166.29975 159.095062 
z
" style="fill: #ffffff"/>
   </g>
   <g id="QuadContourSet_1">
    <path d="M 149.922265 170.50189 
L 144.463103 174.304166 
L 139.003942 178.106442 
L 133.54478 181.908718 
L 128.085618 185.710994 
L 122.626457 189.51327 
L 117.167295 193.315545 
L 111.708133 197.117821 
L 106.248972 200.920097 
L 100.78981 204.722373 
L 95.330649 208.524649 
L 89.871487 212.326925 
L 84.412325 216.129201 
L 78.953164 219.931477 
L 73.494002 223.733752 
L 68.03484 227.536028 
L 62.575679 231.338304 
L 57.116517 235.14058 
L 155.562365 291.717111 
L 261.827485 251.71445 
L 298.526561 144.263686 
L 238.934268 47.613558 
L 126.44743 32.147468 
L 42.982198 109.128269 
L 49.320355 222.496327 
L 140.846274 289.69376 
L 250.908146 261.785463 
L 299.35575 159.095062 
L 250.908146 56.404662 
L 140.846274 28.496365 
L 49.320355 95.693798 
L 42.982198 209.061856 
L 126.44743 286.042657 
L 238.934268 270.576567 
L 298.526561 173.926439 
L 261.827485 66.475675 
L 155.562365 26.473014 
L 57.116517 83.049545 
L 62.575679 86.851821 
L 68.03484 90.654097 
L 73.494002 94.456373 
L 78.953164 98.258648 
L 84.412325 102.060924 
L 89.871487 105.8632 
L 95.330649 109.665476 
L 100.78981 113.467752 
L 106.248972 117.270028 
L 111.708133 121.072304 
L 117.167295 124.87458 
L 122.626457 128.676855 
L 128.085618 132.479131 
L 133.54478 136.281407 
L 139.003942 140.083683 
L 144.463103 143.885959 
L 149.922265 147.688235 
L 150.723162 148.246055 
L 164.767904 140.174581 
L 179.928197 145.881534 
L 185.1639 161.210982 
L 176.662186 174.999621 
L 160.614184 177.206151 
L 148.706491 166.22364 
L 149.610685 150.049813 
L 162.668378 140.462932 
L 178.370601 144.444501 
L 185.282505 159.095062 
L 178.370609 173.745634 
L 162.668373 177.727219 
L 149.610654 168.140329 
L 148.706453 151.966469 
L 160.614171 140.983932 
L 176.662209 143.190469 
L 185.163935 156.979139 
L 179.928216 172.308609 
L 164.767903 178.015557 
L 150.723162 169.94407 
z
" clip-path="url(#p98ed58bb28)" style="fill: #481b6d"/>
    <path d="M 164.767903 178.015557 
L 179.928216 172.308609 
L 185.163935 156.979139 
L 176.662209 143.190469 
L 160.614171 140.983932 
L 148.706453 151.966469 
L 149.610654 168.140329 
L 162.668373 177.727219 
L 178.370609 173.745634 
L 185.282505 159.095062 
L 178.370601 144.444501 
L 162.668378 140.462932 
L 149.610685 150.049813 
L 148.706491 166.22364 
L 160.614184 177.206151 
L 176.662186 174.999621 
L 185.1639 161.210982 
L 179.928197 145.881534 
L 164.767904 140.174581 
L 150.723162 148.246055 
L 151.541211 148.815821 
L 164.848353 141.168241 
L 179.212485 146.575457 
L 184.173283 161.099868 
L 176.118062 174.164484 
L 160.912704 176.255232 
L 149.630139 165.849389 
L 150.486789 150.52465 
L 162.858996 141.44097 
L 177.737009 145.2135 
L 184.286136 159.095062 
L 177.737031 172.976651 
L 162.858983 176.749218 
L 150.486712 167.665517 
L 149.630043 152.340697 
L 160.912671 141.934789 
L 176.118118 144.025554 
L 184.17337 157.090247 
L 179.212531 171.614713 
L 164.848351 177.021917 
L 151.541211 169.374304 
L 150.723162 169.94407 
z
" clip-path="url(#p98ed58bb28)" style="fill: #3f4788"/>
    <path d="M 164.848351 177.021917 
L 179.212531 171.614713 
L 184.17337 157.090247 
L 176.118118 144.025554 
L 160.912671 141.934789 
L 149.630043 152.340697 
L 150.486712 167.665517 
L 162.858983 176.749218 
L 177.737031 172.976651 
L 184.286136 159.095062 
L 177.737009 145.2135 
L 162.858996 141.44097 
L 150.486789 150.52465 
L 149.630139 165.849389 
L 160.912704 176.255232 
L 176.118062 174.164484 
L 184.173283 161.099868 
L 179.212485 146.575457 
L 164.848353 141.168241 
L 151.541211 148.815821 
L 152.359259 149.385588 
L 164.928802 142.161901 
L 178.496772 147.269379 
L 183.182667 160.988755 
L 175.573937 173.329347 
L 161.211223 175.304313 
L 150.553788 165.475138 
L 151.362894 150.999486 
L 163.049614 142.419008 
L 177.103418 145.982499 
L 183.289767 159.095062 
L 177.103452 172.207667 
L 163.049594 175.771218 
L 151.362769 167.190706 
L 150.553634 152.714925 
L 161.211171 142.885646 
L 175.574028 144.86064 
L 183.182806 157.201355 
L 178.496846 170.920817 
L 164.928798 176.028278 
L 152.359259 168.804537 
L 151.541211 169.374304 
z
" clip-path="url(#p98ed58bb28)" style="fill: #2e6e8e"/>
    <path d="M 164.928798 176.028278 
L 178.496846 170.920817 
L 183.182806 157.201355 
L 175.574028 144.86064 
L 161.211171 142.885646 
L 150.553634 152.714925 
L 151.362769 167.190706 
L 163.049594 175.771218 
L 177.103452 172.207667 
L 183.289767 159.095062 
L 177.103418 145.982499 
L 163.049614 142.419008 
L 151.362894 150.999486 
L 150.553788 165.475138 
L 161.211223 175.304313 
L 175.573937 173.329347 
L 183.182667 160.988755 
L 178.496772 147.269379 
L 164.928802 142.161901 
L 152.359259 149.385588 
L 153.177308 149.955354 
L 165.009251 143.15556 
L 177.78106 147.963302 
L 182.19205 160.877641 
L 175.029813 172.494209 
L 161.509743 174.353394 
L 151.477436 165.100886 
L 152.238998 151.474323 
L 163.240232 143.397046 
L 176.469826 146.751498 
L 182.293398 159.095062 
L 176.469873 171.438684 
L 163.240205 174.793218 
L 152.238827 166.715894 
L 151.477225 153.089153 
L 161.509671 143.836503 
L 175.029937 145.695725 
L 182.192242 157.312462 
L 177.78116 170.226921 
L 165.009245 175.034638 
L 153.177308 168.234771 
L 152.359259 168.804537 
z
" clip-path="url(#p98ed58bb28)" style="fill: #21918c"/>
    <path d="M 165.009245 175.034638 
L 177.78116 170.226921 
L 182.192242 157.312462 
L 175.029937 145.695725 
L 161.509671 143.836503 
L 151.477225 153.089153 
L 152.238827 166.715894 
L 163.240205 174.793218 
L 176.469873 171.438684 
L 182.293398 159.095062 
L 176.469826 146.751498 
L 163.240232 143.397046 
L 152.238998 151.474323 
L 151.477436 165.100886 
L 161.509743 174.353394 
L 175.029813 172.494209 
L 182.19205 160.877641 
L 177.78106 147.963302 
L 165.009251 143.15556 
L 153.177308 149.955354 
L 153.995357 150.525121 
L 165.0897 144.14922 
L 177.065348 148.657224 
L 181.201434 160.766527 
L 174.485689 171.659072 
L 161.808262 173.402474 
L 152.401084 164.726635 
L 153.115102 151.94916 
L 163.43085 144.375084 
L 175.836234 147.520497 
L 181.297029 159.095062 
L 175.836294 170.669701 
L 163.430815 173.815217 
L 153.114885 166.241083 
L 152.400815 153.463381 
L 161.808171 144.78736 
L 174.485847 146.530811 
L 181.201677 157.42357 
L 177.065475 169.533025 
L 165.089693 174.040998 
L 153.995357 167.665004 
L 153.177308 168.234771 
z
" clip-path="url(#p98ed58bb28)" style="fill: #2db27d"/>
    <path d="M 165.089693 174.040998 
L 177.065475 169.533025 
L 181.201677 157.42357 
L 174.485847 146.530811 
L 161.808171 144.78736 
L 152.400815 153.463381 
L 153.114885 166.241083 
L 163.430815 173.815217 
L 175.836294 170.669701 
L 181.297029 159.095062 
L 175.836234 147.520497 
L 163.43085 144.375084 
L 153.115102 151.94916 
L 152.401084 164.726635 
L 161.808262 173.402474 
L 174.485689 171.659072 
L 181.201434 160.766527 
L 177.065348 148.657224 
L 165.0897 144.14922 
L 153.995357 150.525121 
L 154.813406 151.094888 
L 165.170149 145.142879 
L 176.349635 149.351147 
L 180.210817 160.655414 
L 173.941565 170.823935 
L 162.106782 172.451555 
L 153.324732 164.352384 
L 153.991207 152.423997 
L 163.621468 145.353122 
L 175.202643 148.289496 
L 180.300661 159.095062 
L 175.202716 169.900717 
L 163.621426 172.837217 
L 153.990943 165.766271 
L 153.324406 153.837609 
L 162.106671 145.738217 
L 173.941756 147.365896 
L 180.211113 157.534678 
L 176.34979 168.839129 
L 165.17014 173.047359 
L 154.813406 167.095237 
L 153.995357 167.665004 
z
" clip-path="url(#p98ed58bb28)" style="fill: #73d056"/>
    <path d="M 160.840588 162.897338 
L 155.381427 166.699614 
L 154.813406 167.095237 
L 165.17014 173.047359 
L 176.34979 168.839129 
L 180.211113 157.534678 
L 173.941756 147.365896 
L 162.106671 145.738217 
L 153.324406 153.837609 
L 153.990943 165.766271 
L 163.621426 172.837217 
L 175.202716 169.900717 
L 180.300661 159.095062 
L 175.202643 148.289496 
L 163.621468 145.353122 
L 153.991207 152.423997 
L 153.324732 164.352384 
L 162.106782 172.451555 
L 173.941565 170.823935 
L 180.210817 160.655414 
L 176.349635 149.351147 
L 165.170149 145.142879 
L 154.813406 151.094888 
L 155.381427 151.490511 
L 160.840588 155.292787 
L 166.29975 159.095062 
L 166.29975 159.095062 
L 166.29975 159.095062 
L 166.29975 159.095062 
L 166.29975 159.095062 
L 166.29975 159.095062 
L 166.29975 159.095062 
L 166.29975 159.095062 
L 166.29975 159.095062 
L 166.29975 159.095062 
L 166.29975 159.095062 
L 166.29975 159.095062 
L 166.29975 159.095062 
L 166.29975 159.095062 
L 166.29975 159.095062 
L 166.29975 159.095062 
L 166.29975 159.095062 
L 166.29975 159.095062 
L 166.29975 159.095062 
L 166.29975 159.095062 
L 166.29975 159.095062 
z
" clip-path="url(#p98ed58bb28)" style="fill: #d0e11c"/>
   </g>
   <g id="matplotlib.axis_1">
    <g id="xtick_1">
     <g id="line2d_1">
      <path d="M 166.29975 159.095062 
L 299.35575 159.095062 
" clip-path="url(#p98ed58bb28)" style="fill: none; stroke: #b0b0b0; stroke-width: 0.8; stroke-linecap: square"/>
     </g>
     <g id="text_1">
      <!-- 0° -->
      <g transform="translate(307.6745 161.854437) scale(0.1 -0.1)">
       <defs>
        <path id="DejaVuSans-30" d="M 2034 4250 
Q 1547 4250 1301 3770 
Q 1056 3291 1056 2328 
Q 1056 1369 1301 889 
Q 1547 409 2034 409 
Q 2525 409 2770 889 
Q 3016 1369 3016 2328 
Q 3016 3291 2770 3770 
Q 2525 4250 2034 4250 
z
M 2034 4750 
Q 2819 4750 3233 4129 
Q 3647 3509 3647 2328 
Q 3647 1150 3233 529 
Q 2819 -91 2034 -91 
Q 1250 -91 836 529 
Q 422 1150 422 2328 
Q 422 3509 836 4129 
Q 1250 4750 2034 4750 
z
" transform="scale(0.015625)"/>
        <path id="DejaVuSans-b0" d="M 1600 4347 
Q 1350 4347 1178 4173 
Q 1006 4000 1006 3750 
Q 1006 3503 1178 3333 
Q 1350 3163 1600 3163 
Q 1850 3163 2022 3333 
Q 2194 3503 2194 3750 
Q 2194 3997 2020 4172 
Q 1847 4347 1600 4347 
z
M 1600 4750 
Q 1800 4750 1984 4673 
Q 2169 4597 2303 4453 
Q 2447 4313 2519 4134 
Q 2591 3956 2591 3750 
Q 2591 3338 2302 3052 
Q 2013 2766 1594 2766 
Q 1172 2766 890 3047 
Q 609 3328 609 3750 
Q 609 4169 896 4459 
Q 1184 4750 1600 4750 
z
" transform="scale(0.015625)"/>
       </defs>
       <use xlink:href="#DejaVuSans-30"/>
       <use xlink:href="#DejaVuSans-b0" transform="translate(63.623047 0)"/>
      </g>
     </g>
    </g>
    <g id="xtick_2">
     <g id="line2d_2">
      <path d="M 166.29975 159.095062 
L 260.38455 65.010263 
" clip-path="url(#p98ed58bb28)" style="fill: none; stroke: #b0b0b0; stroke-width: 0.8; stroke-linecap: square"/>
     </g>
     <g id="text_2">
      <!-- 45° -->
      <g transform="translate(261.421545 57.870143) scale(0.1 -0.1)">
       <defs>
        <path id="DejaVuSans-34" d="M 2419 4116 
L 825 1625 
L 2419 1625 
L 2419 4116 
z
M 2253 4666 
L 3047 4666 
L 3047 1625 
L 3713 1625 
L 3713 1100 
L 3047 1100 
L 3047 0 
L 2419 0 
L 2419 1100 
L 313 1100 
L 313 1709 
L 2253 4666 
z
" transform="scale(0.015625)"/>
        <path id="DejaVuSans-35" d="M 691 4666 
L 3169 4666 
L 3169 4134 
L 1269 4134 
L 1269 2991 
Q 1406 3038 1543 3061 
Q 1681 3084 1819 3084 
Q 2600 3084 3056 2656 
Q 3513 2228 3513 1497 
Q 3513 744 3044 326 
Q 2575 -91 1722 -91 
Q 1428 -91 1123 -41 
Q 819 9 494 109 
L 494 744 
Q 775 591 1075 516 
Q 1375 441 1709 441 
Q 2250 441 2565 725 
Q 2881 1009 2881 1497 
Q 2881 1984 2565 2268 
Q 2250 2553 1709 2553 
Q 1456 2553 1204 2497 
Q 953 2441 691 2322 
L 691 4666 
z
" transform="scale(0.015625)"/>
       </defs>
       <use xlink:href="#DejaVuSans-34"/>
       <use xlink:href="#DejaVuSans-35" transform="translate(63.623047 0)"/>
       <use xlink:href="#DejaVuSans-b0" transform="translate(127.246094 0)"/>
      </g>
     </g>
    </g>
    <g id="xtick_3">
     <g id="line2d_3">
      <path d="M 166.29975 159.095062 
L 166.29975 26.039062 
" clip-path="url(#p98ed58bb28)" style="fill: none; stroke: #b0b0b0; stroke-width: 0.8; stroke-linecap: square"/>
     </g>
     <g id="text_3">
      <!-- 90° -->
      <g transform="translate(157.43725 14.798437) scale(0.1 -0.1)">
       <defs>
        <path id="DejaVuSans-39" d="M 703 97 
L 703 672 
Q 941 559 1184 500 
Q 1428 441 1663 441 
Q 2288 441 2617 861 
Q 2947 1281 2994 2138 
Q 2813 1869 2534 1725 
Q 2256 1581 1919 1581 
Q 1219 1581 811 2004 
Q 403 2428 403 3163 
Q 403 3881 828 4315 
Q 1253 4750 1959 4750 
Q 2769 4750 3195 4129 
Q 3622 3509 3622 2328 
Q 3622 1225 3098 567 
Q 2575 -91 1691 -91 
Q 1453 -91 1209 -44 
Q 966 3 703 97 
z
M 1959 2075 
Q 2384 2075 2632 2365 
Q 2881 2656 2881 3163 
Q 2881 3666 2632 3958 
Q 2384 4250 1959 4250 
Q 1534 4250 1286 3958 
Q 1038 3666 1038 3163 
Q 1038 2656 1286 2365 
Q 1534 2075 1959 2075 
z
" transform="scale(0.015625)"/>
       </defs>
       <use xlink:href="#DejaVuSans-39"/>
       <use xlink:href="#DejaVuSans-30" transform="translate(63.623047 0)"/>
       <use xlink:href="#DejaVuSans-b0" transform="translate(127.246094 0)"/>
      </g>
     </g>
    </g>
    <g id="xtick_4">
     <g id="line2d_4">
      <path d="M 166.29975 159.095062 
L 72.21495 65.010263 
" clip-path="url(#p98ed58bb28)" style="fill: none; stroke: #b0b0b0; stroke-width: 0.8; stroke-linecap: square"/>
     </g>
     <g id="text_4">
      <!-- 135° -->
      <g transform="translate(50.271705 57.870143) scale(0.1 -0.1)">
       <defs>
        <path id="DejaVuSans-31" d="M 794 531 
L 1825 531 
L 1825 4091 
L 703 3866 
L 703 4441 
L 1819 4666 
L 2450 4666 
L 2450 531 
L 3481 531 
L 3481 0 
L 794 0 
L 794 531 
z
" transform="scale(0.015625)"/>
        <path id="DejaVuSans-33" d="M 2597 2516 
Q 3050 2419 3304 2112 
Q 3559 1806 3559 1356 
Q 3559 666 3084 287 
Q 2609 -91 1734 -91 
Q 1441 -91 1130 -33 
Q 819 25 488 141 
L 488 750 
Q 750 597 1062 519 
Q 1375 441 1716 441 
Q 2309 441 2620 675 
Q 2931 909 2931 1356 
Q 2931 1769 2642 2001 
Q 2353 2234 1838 2234 
L 1294 2234 
L 1294 2753 
L 1863 2753 
Q 2328 2753 2575 2939 
Q 2822 3125 2822 3475 
Q 2822 3834 2567 4026 
Q 2313 4219 1838 4219 
Q 1578 4219 1281 4162 
Q 984 4106 628 3988 
L 628 4550 
Q 988 4650 1302 4700 
Q 1616 4750 1894 4750 
Q 2613 4750 3031 4423 
Q 3450 4097 3450 3541 
Q 3450 3153 3228 2886 
Q 3006 2619 2597 2516 
z
" transform="scale(0.015625)"/>
       </defs>
       <use xlink:href="#DejaVuSans-31"/>
       <use xlink:href="#DejaVuSans-33" transform="translate(63.623047 0)"/>
       <use xlink:href="#DejaVuSans-35" transform="translate(127.246094 0)"/>
       <use xlink:href="#DejaVuSans-b0" transform="translate(190.869141 0)"/>
      </g>
     </g>
    </g>
    <g id="xtick_5">
     <g id="line2d_5">
      <path d="M 166.29975 159.095062 
L 33.24375 159.095062 
" clip-path="url(#p98ed58bb28)" style="fill: none; stroke: #b0b0b0; stroke-width: 0.8; stroke-linecap: square"/>
     </g>
     <g id="text_5">
      <!-- 180° -->
      <g transform="translate(7.2 161.854437) scale(0.1 -0.1)">
       <defs>
        <path id="DejaVuSans-38" d="M 2034 2216 
Q 1584 2216 1326 1975 
Q 1069 1734 1069 1313 
Q 1069 891 1326 650 
Q 1584 409 2034 409 
Q 2484 409 2743 651 
Q 3003 894 3003 1313 
Q 3003 1734 2745 1975 
Q 2488 2216 2034 2216 
z
M 1403 2484 
Q 997 2584 770 2862 
Q 544 3141 544 3541 
Q 544 4100 942 4425 
Q 1341 4750 2034 4750 
Q 2731 4750 3128 4425 
Q 3525 4100 3525 3541 
Q 3525 3141 3298 2862 
Q 3072 2584 2669 2484 
Q 3125 2378 3379 2068 
Q 3634 1759 3634 1313 
Q 3634 634 3220 271 
Q 2806 -91 2034 -91 
Q 1263 -91 848 271 
Q 434 634 434 1313 
Q 434 1759 690 2068 
Q 947 2378 1403 2484 
z
M 1172 3481 
Q 1172 3119 1398 2916 
Q 1625 2713 2034 2713 
Q 2441 2713 2670 2916 
Q 2900 3119 2900 3481 
Q 2900 3844 2670 4047 
Q 2441 4250 2034 4250 
Q 1625 4250 1398 4047 
Q 1172 3844 1172 3481 
z
" transform="scale(0.015625)"/>
       </defs>
       <use xlink:href="#DejaVuSans-31"/>
       <use xlink:href="#DejaVuSans-38" transform="translate(63.623047 0)"/>
       <use xlink:href="#DejaVuSans-30" transform="translate(127.246094 0)"/>
       <use xlink:href="#DejaVuSans-b0" transform="translate(190.869141 0)"/>
      </g>
     </g>
    </g>
    <g id="xtick_6">
     <g id="line2d_6">
      <path d="M 166.29975 159.095062 
L 72.21495 253.179862 
" clip-path="url(#p98ed58bb28)" style="fill: none; stroke: #b0b0b0; stroke-width: 0.8; stroke-linecap: square"/>
     </g>
     <g id="text_6">
      <!-- 225° -->
      <g transform="translate(50.271705 265.838732) scale(0.1 -0.1)">
       <defs>
        <path id="DejaVuSans-32" d="M 1228 531 
L 3431 531 
L 3431 0 
L 469 0 
L 469 531 
Q 828 903 1448 1529 
Q 2069 2156 2228 2338 
Q 2531 2678 2651 2914 
Q 2772 3150 2772 3378 
Q 2772 3750 2511 3984 
Q 2250 4219 1831 4219 
Q 1534 4219 1204 4116 
Q 875 4013 500 3803 
L 500 4441 
Q 881 4594 1212 4672 
Q 1544 4750 1819 4750 
Q 2544 4750 2975 4387 
Q 3406 4025 3406 3419 
Q 3406 3131 3298 2873 
Q 3191 2616 2906 2266 
Q 2828 2175 2409 1742 
Q 1991 1309 1228 531 
z
" transform="scale(0.015625)"/>
       </defs>
       <use xlink:href="#DejaVuSans-32"/>
       <use xlink:href="#DejaVuSans-32" transform="translate(63.623047 0)"/>
       <use xlink:href="#DejaVuSans-35" transform="translate(127.246094 0)"/>
       <use xlink:href="#DejaVuSans-b0" transform="translate(190.869141 0)"/>
      </g>
     </g>
    </g>
    <g id="xtick_7">
     <g id="line2d_7">
      <path d="M 166.29975 159.095062 
L 166.29975 292.151062 
" clip-path="url(#p98ed58bb28)" style="fill: none; stroke: #b0b0b0; stroke-width: 0.8; stroke-linecap: square"/>
     </g>
     <g id="text_7">
      <!-- 270° -->
      <g transform="translate(154.256 308.910437) scale(0.1 -0.1)">
       <defs>
        <path id="DejaVuSans-37" d="M 525 4666 
L 3525 4666 
L 3525 4397 
L 1831 0 
L 1172 0 
L 2766 4134 
L 525 4134 
L 525 4666 
z
" transform="scale(0.015625)"/>
       </defs>
       <use xlink:href="#DejaVuSans-32"/>
       <use xlink:href="#DejaVuSans-37" transform="translate(63.623047 0)"/>
       <use xlink:href="#DejaVuSans-30" transform="translate(127.246094 0)"/>
       <use xlink:href="#DejaVuSans-b0" transform="translate(190.869141 0)"/>
      </g>
     </g>
    </g>
    <g id="xtick_8">
     <g id="line2d_8">
      <path d="M 166.29975 159.095062 
L 260.38455 253.179862 
" clip-path="url(#p98ed58bb28)" style="fill: none; stroke: #b0b0b0; stroke-width: 0.8; stroke-linecap: square"/>
     </g>
     <g id="text_8">
      <!-- 315° -->
      <g transform="translate(258.240295 265.838732) scale(0.1 -0.1)">
       <use xlink:href="#DejaVuSans-33"/>
       <use xlink:href="#DejaVuSans-31" transform="translate(63.623047 0)"/>
       <use xlink:href="#DejaVuSans-35" transform="translate(127.246094 0)"/>
       <use xlink:href="#DejaVuSans-b0" transform="translate(190.869141 0)"/>
      </g>
     </g>
    </g>
   </g>
   <g id="matplotlib.axis_2">
    <g id="ytick_1">
     <g id="line2d_9">
      <path d="M 182.93175 159.095062 
C 182.93175 156.910968 182.501531 154.748112 181.665714 152.730272 
C 180.829898 150.712432 179.604738 148.87885 178.06035 147.334463 
C 176.515962 145.790075 174.682381 144.564915 172.664541 143.729098 
C 170.646701 142.893281 168.483844 142.463062 166.29975 142.463062 
C 164.115656 142.463062 161.952799 142.893281 159.934959 143.729098 
C 157.917119 144.564915 156.083538 145.790075 154.53915 147.334463 
C 152.994762 148.87885 151.769602 150.712432 150.933786 152.730272 
C 150.097969 154.748112 149.66775 156.910968 149.66775 159.095062 
C 149.66775 161.279157 150.097969 163.442013 150.933786 165.459853 
C 151.769602 167.477693 152.994762 169.311275 154.53915 170.855662 
C 156.083538 172.40005 157.917119 173.62521 159.934959 174.461027 
C 161.952799 175.296844 164.115656 175.727062 166.29975 175.727062 
C 168.483844 175.727062 170.646701 175.296844 172.664541 174.461027 
C 174.682381 173.62521 176.515962 172.40005 178.06035 170.855662 
C 179.604738 169.311275 180.829898 167.477693 181.665714 165.459853 
C 182.501531 163.442013 182.93175 161.279157 182.93175 159.095062 
" clip-path="url(#p98ed58bb28)" style="fill: none; stroke: #b0b0b0; stroke-width: 0.8; stroke-linecap: square"/>
     </g>
     <g id="text_9">
      <!-- 0.25 -->
      <g transform="translate(181.665714 150.650584) scale(0.1 -0.1)">
       <defs>
        <path id="DejaVuSans-2e" d="M 684 794 
L 1344 794 
L 1344 0 
L 684 0 
L 684 794 
z
" transform="scale(0.015625)"/>
       </defs>
       <use xlink:href="#DejaVuSans-30"/>
       <use xlink:href="#DejaVuSans-2e" transform="translate(63.623047 0)"/>
       <use xlink:href="#DejaVuSans-32" transform="translate(95.410156 0)"/>
       <use xlink:href="#DejaVuSans-35" transform="translate(159.033203 0)"/>
      </g>
     </g>
    </g>
    <g id="ytick_2">
     <g id="line2d_10">
      <path d="M 199.56375 159.095062 
C 199.56375 154.726874 198.703312 150.401161 197.031679 146.365481 
C 195.360045 142.329801 192.909726 138.662638 189.82095 135.573863 
C 186.732174 132.485087 183.065012 130.034767 179.029332 128.363134 
C 174.993652 126.6915 170.667938 125.831062 166.29975 125.831062 
C 161.931562 125.831062 157.605848 126.6915 153.570168 128.363134 
C 149.534488 130.034767 145.867326 132.485087 142.77855 135.573863 
C 139.689774 138.662638 137.239455 142.329801 135.567821 146.365481 
C 133.896188 150.401161 133.03575 154.726874 133.03575 159.095062 
C 133.03575 163.463251 133.896188 167.788964 135.567821 171.824644 
C 137.239455 175.860324 139.689774 179.527487 142.77855 182.616262 
C 145.867326 185.705038 149.534488 188.155358 153.570168 189.826991 
C 157.605848 191.498625 161.931562 192.359062 166.29975 192.359062 
C 170.667938 192.359062 174.993652 191.498625 179.029332 189.826991 
C 183.065012 188.155358 186.732174 185.705038 189.82095 182.616262 
C 192.909726 179.527487 195.360045 175.860324 197.031679 171.824644 
C 198.703312 167.788964 199.56375 163.463251 199.56375 159.095062 
" clip-path="url(#p98ed58bb28)" style="fill: none; stroke: #b0b0b0; stroke-width: 0.8; stroke-linecap: square"/>
     </g>
     <g id="text_10">
      <!-- 0.50 -->
      <g transform="translate(197.031679 144.285793) scale(0.1 -0.1)">
       <use xlink:href="#DejaVuSans-30"/>
       <use xlink:href="#DejaVuSans-2e" transform="translate(63.623047 0)"/>
       <use xlink:href="#DejaVuSans-35" transform="translate(95.410156 0)"/>
       <use xlink:href="#DejaVuSans-30" transform="translate(159.033203 0)"/>
      </g>
     </g>
    </g>
    <g id="ytick_3">
     <g id="line2d_11">
      <path d="M 216.19575 159.095062 
C 216.19575 152.54278 214.905093 146.05421 212.397643 140.00069 
C 209.890193 133.94717 206.214713 128.446426 201.58155 123.813263 
C 196.948386 119.180099 191.447642 115.504619 185.394123 112.997169 
C 179.340603 110.489719 172.852033 109.199062 166.29975 109.199062 
C 159.747467 109.199062 153.258897 110.489719 147.205377 112.997169 
C 141.151858 115.504619 135.651114 119.180099 131.01795 123.813263 
C 126.384787 128.446426 122.709307 133.94717 120.201857 140.00069 
C 117.694407 146.05421 116.40375 152.54278 116.40375 159.095062 
C 116.40375 165.647345 117.694407 172.135915 120.201857 178.189435 
C 122.709307 184.242955 126.384787 189.743699 131.01795 194.376862 
C 135.651114 199.010026 141.151858 202.685506 147.205377 205.192956 
C 153.258897 207.700406 159.747467 208.991062 166.29975 208.991062 
C 172.852033 208.991062 179.340603 207.700406 185.394123 205.192956 
C 191.447642 202.685506 196.948386 199.010026 201.58155 194.376862 
C 206.214713 189.743699 209.890193 184.242955 212.397643 178.189435 
C 214.905093 172.135915 216.19575 165.647345 216.19575 159.095062 
" clip-path="url(#p98ed58bb28)" style="fill: none; stroke: #b0b0b0; stroke-width: 0.8; stroke-linecap: square"/>
     </g>
     <g id="text_11">
      <!-- 0.75 -->
      <g transform="translate(212.397643 137.921002) scale(0.1 -0.1)">
       <use xlink:href="#DejaVuSans-30"/>
       <use xlink:href="#DejaVuSans-2e" transform="translate(63.623047 0)"/>
       <use xlink:href="#DejaVuSans-37" transform="translate(95.410156 0)"/>
       <use xlink:href="#DejaVuSans-35" transform="translate(159.033203 0)"/>
      </g>
     </g>
    </g>
    <g id="ytick_4">
     <g id="line2d_12">
      <path d="M 232.82775 159.095062 
C 232.82775 150.358686 231.106874 141.707259 227.763608 133.635899 
C 224.420341 125.564539 219.519701 118.230214 213.34215 112.052663 
C 207.164599 105.875111 199.830273 100.974472 191.758913 97.631205 
C 183.687554 94.287938 175.036127 92.567062 166.29975 92.567062 
C 157.563373 92.567062 148.911946 94.287938 140.840587 97.631205 
C 132.769227 100.974472 125.434901 105.875111 119.25735 112.052663 
C 113.079799 118.230214 108.179159 125.564539 104.835892 133.635899 
C 101.492626 141.707259 99.77175 150.358686 99.77175 159.095062 
C 99.77175 167.831439 101.492626 176.482866 104.835892 184.554226 
C 108.179159 192.625586 113.079799 199.959911 119.25735 206.137462 
C 125.434901 212.315014 132.769227 217.215653 140.840587 220.55892 
C 148.911946 223.902187 157.563373 225.623062 166.29975 225.623062 
C 175.036127 225.623062 183.687554 223.902187 191.758913 220.55892 
C 199.830273 217.215653 207.164599 212.315014 213.34215 206.137462 
C 219.519701 199.959911 224.420341 192.625586 227.763608 184.554226 
C 231.106874 176.482866 232.82775 167.831439 232.82775 159.095062 
" clip-path="url(#p98ed58bb28)" style="fill: none; stroke: #b0b0b0; stroke-width: 0.8; stroke-linecap: square"/>
     </g>
     <g id="text_12">
      <!-- 1.00 -->
      <g transform="translate(227.763608 131.556212) scale(0.1 -0.1)">
       <use xlink:href="#DejaVuSans-31"/>
       <use xlink:href="#DejaVuSans-2e" transform="translate(63.623047 0)"/>
       <use xlink:href="#DejaVuSans-30" transform="translate(95.410156 0)"/>
       <use xlink:href="#DejaVuSans-30" transform="translate(159.033203 0)"/>
      </g>
     </g>
    </g>
    <g id="ytick_5">
     <g id="line2d_13">
      <path d="M 249.45975 159.095062 
C 249.45975 148.174591 247.308655 137.360308 243.129572 127.271108 
C 238.950489 117.181908 232.824689 108.014002 225.10275 100.292063 
C 217.380811 92.570123 208.212904 86.444324 198.123704 82.265241 
C 188.034504 78.086157 177.220221 75.935062 166.29975 75.935062 
C 155.379279 75.935062 144.564996 78.086157 134.475796 82.265241 
C 124.386596 86.444324 115.218689 92.570123 107.49675 100.292063 
C 99.774811 108.014002 93.649011 117.181908 89.469928 127.271108 
C 85.290845 137.360308 83.13975 148.174591 83.13975 159.095062 
C 83.13975 170.015534 85.290845 180.829817 89.469928 190.919017 
C 93.649011 201.008217 99.774811 210.176123 107.49675 217.898062 
C 115.218689 225.620002 124.386596 231.745801 134.475796 235.924884 
C 144.564996 240.103968 155.379279 242.255062 166.29975 242.255062 
C 177.220221 242.255062 188.034504 240.103968 198.123704 235.924884 
C 208.212904 231.745801 217.380811 225.620002 225.10275 217.898062 
C 232.824689 210.176123 238.950489 201.008217 243.129572 190.919017 
C 247.308655 180.829817 249.45975 170.015534 249.45975 159.095062 
" clip-path="url(#p98ed58bb28)" style="fill: none; stroke: #b0b0b0; stroke-width: 0.8; stroke-linecap: square"/>
     </g>
     <g id="text_13">
      <!-- 1.25 -->
      <g transform="translate(243.129572 125.191421) scale(0.1 -0.1)">
       <use xlink:href="#DejaVuSans-31"/>
       <use xlink:href="#DejaVuSans-2e" transform="translate(63.623047 0)"/>
       <use xlink:href="#DejaVuSans-32" transform="translate(95.410156 0)"/>
       <use xlink:href="#DejaVuSans-35" transform="translate(159.033203 0)"/>
      </g>
     </g>
    </g>
    <g id="ytick_6">
     <g id="line2d_14">
      <path d="M 266.09175 159.095062 
C 266.09175 145.990497 263.510436 133.013357 258.495536 120.906317 
C 253.480636 108.799278 246.129677 97.79779 236.86335 88.531463 
C 227.597023 79.265136 216.595535 71.914176 204.488495 66.899276 
C 192.381455 61.884376 179.404315 59.303062 166.29975 59.303062 
C 153.195185 59.303062 140.218045 61.884376 128.111005 66.899276 
C 116.003965 71.914176 105.002477 79.265136 95.73615 88.531463 
C 86.469823 97.79779 79.118864 108.799278 74.103964 120.906317 
C 69.089064 133.013357 66.50775 145.990497 66.50775 159.095062 
C 66.50775 172.199628 69.089064 185.176768 74.103964 197.283808 
C 79.118864 209.390847 86.469823 220.392335 95.73615 229.658662 
C 105.002477 238.924989 116.003965 246.275949 128.111005 251.290849 
C 140.218045 256.305749 153.195185 258.887062 166.29975 258.887062 
C 179.404315 258.887062 192.381455 256.305749 204.488495 251.290849 
C 216.595535 246.275949 227.597023 238.924989 236.86335 229.658662 
C 246.129677 220.392335 253.480636 209.390847 258.495536 197.283808 
C 263.510436 185.176768 266.09175 172.199628 266.09175 159.095062 
" clip-path="url(#p98ed58bb28)" style="fill: none; stroke: #b0b0b0; stroke-width: 0.8; stroke-linecap: square"/>
     </g>
     <g id="text_14">
      <!-- 1.50 -->
      <g transform="translate(258.495536 118.82663) scale(0.1 -0.1)">
       <use xlink:href="#DejaVuSans-31"/>
       <use xlink:href="#DejaVuSans-2e" transform="translate(63.623047 0)"/>
       <use xlink:href="#DejaVuSans-35" transform="translate(95.410156 0)"/>
       <use xlink:href="#DejaVuSans-30" transform="translate(159.033203 0)"/>
      </g>
     </g>
    </g>
    <g id="ytick_7">
     <g id="line2d_15">
      <path d="M 282.72375 159.095062 
C 282.72375 143.806403 279.712217 128.666406 273.861501 114.541527 
C 268.010784 100.416647 259.434665 87.581577 248.62395 76.770863 
C 237.813235 65.960148 224.978166 57.384029 210.853286 51.533312 
C 196.728406 45.682595 181.58841 42.671062 166.29975 42.671062 
C 151.01109 42.671062 135.871094 45.682595 121.746214 51.533312 
C 107.621334 57.384029 94.786265 65.960148 83.97555 76.770863 
C 73.164835 87.581577 64.588716 100.416647 58.737999 114.541527 
C 52.887283 128.666406 49.87575 143.806403 49.87575 159.095062 
C 49.87575 174.383722 52.887283 189.523719 58.737999 203.648598 
C 64.588716 217.773478 73.164835 230.608548 83.97555 241.419262 
C 94.786265 252.229977 107.621334 260.806096 121.746214 266.656813 
C 135.871094 272.50753 151.01109 275.519062 166.29975 275.519062 
C 181.58841 275.519062 196.728406 272.50753 210.853286 266.656813 
C 224.978166 260.806096 237.813235 252.229977 248.62395 241.419262 
C 259.434665 230.608548 268.010784 217.773478 273.861501 203.648598 
C 279.712217 189.523719 282.72375 174.383722 282.72375 159.095062 
" clip-path="url(#p98ed58bb28)" style="fill: none; stroke: #b0b0b0; stroke-width: 0.8; stroke-linecap: square"/>
     </g>
     <g id="text_15">
      <!-- 1.75 -->
      <g transform="translate(273.861501 112.461839) scale(0.1 -0.1)">
       <use xlink:href="#DejaVuSans-31"/>
       <use xlink:href="#DejaVuSans-2e" transform="translate(63.623047 0)"/>
       <use xlink:href="#DejaVuSans-37" transform="translate(95.410156 0)"/>
       <use xlink:href="#DejaVuSans-35" transform="translate(159.033203 0)"/>
      </g>
     </g>
    </g>
    <g id="ytick_8">
     <g id="line2d_16">
      <path d="M 299.35575 159.095062 
C 299.35575 141.622309 295.913998 124.319455 289.227465 108.176736 
C 282.540932 92.034016 272.739653 77.365365 260.38455 65.010263 
C 248.029447 52.65516 233.360796 42.853881 217.218077 36.167347 
C 201.075357 29.480814 183.772504 26.039062 166.29975 26.039062 
C 148.826996 26.039062 131.524143 29.480814 115.381423 36.167347 
C 99.238704 42.853881 84.570053 52.65516 72.21495 65.010263 
C 59.859847 77.365365 50.058568 92.034016 43.372035 108.176736 
C 36.685502 124.319455 33.24375 141.622309 33.24375 159.095062 
C 33.24375 176.567816 36.685502 193.87067 43.372035 210.013389 
C 50.058568 226.156109 59.859847 240.82476 72.21495 253.179862 
C 84.570053 265.534965 99.238704 275.336244 115.381423 282.022778 
C 131.524143 288.709311 148.826996 292.151062 166.29975 292.151062 
C 183.772504 292.151062 201.075357 288.709311 217.218077 282.022778 
C 233.360796 275.336244 248.029447 265.534965 260.38455 253.179862 
C 272.739653 240.82476 282.540932 226.156109 289.227465 210.013389 
C 295.913998 193.87067 299.35575 176.567816 299.35575 159.095062 
" clip-path="url(#p98ed58bb28)" style="fill: none; stroke: #b0b0b0; stroke-width: 0.8; stroke-linecap: square"/>
     </g>
     <g id="text_16">
      <!-- 2.00 -->
      <g transform="translate(289.227465 106.097048) scale(0.1 -0.1)">
       <use xlink:href="#DejaVuSans-32"/>
       <use xlink:href="#DejaVuSans-2e" transform="translate(63.623047 0)"/>
       <use xlink:href="#DejaVuSans-30" transform="translate(95.410156 0)"/>
       <use xlink:href="#DejaVuSans-30" transform="translate(159.033203 0)"/>
      </g>
     </g>
    </g>
   </g>
   <g id="patch_3">
    <path d="M 299.35575 159.095062 
C 299.35575 141.622309 295.913998 124.319455 289.227465 108.176736 
C 282.540932 92.034016 272.739653 77.365365 260.38455 65.010263 
C 248.029447 52.65516 233.360796 42.853881 217.218077 36.167347 
C 201.075357 29.480814 183.772504 26.039062 166.29975 26.039062 
C 148.826996 26.039062 131.524143 29.480814 115.381423 36.167347 
C 99.238704 42.853881 84.570053 52.65516 72.21495 65.010263 
C 59.859847 77.365365 50.058568 92.034016 43.372035 108.176736 
C 36.685502 124.319455 33.24375 141.622309 33.24375 159.095062 
C 33.24375 176.567816 36.685502 193.87067 43.372035 210.013389 
C 50.058568 226.156109 59.859847 240.82476 72.21495 253.179862 
C 84.570053 265.534965 99.238704 275.336244 115.381423 282.022778 
C 131.524143 288.709311 148.826996 292.151062 166.29975 292.151062 
C 183.772504 292.151062 201.075357 288.709311 217.218077 282.022778 
C 233.360796 275.336244 248.029447 265.534965 260.38455 253.179862 
C 272.739653 240.82476 282.540932 226.156109 289.227465 210.013389 
C 295.913998 193.87067 299.35575 176.567816 299.35575 159.095062 
" style="fill: none; stroke: #000000; stroke-width: 0.8; stroke-linejoin: miter; stroke-linecap: square"/>
   </g>
  </g>
 </g>
 <defs>
  <clipPath id="p98ed58bb28">
   <path d="M 299.35575 159.095062 
C 299.35575 141.622309 295.913998 124.319455 289.227465 108.176736 
C 282.540932 92.034016 272.739653 77.365365 260.38455 65.010263 
C 248.029447 52.65516 233.360796 42.853881 217.218077 36.167347 
C 201.075357 29.480814 183.772504 26.039062 166.29975 26.039062 
C 148.826996 26.039062 131.524143 29.480814 115.381423 36.167347 
C 99.238704 42.853881 84.570053 52.65516 72.21495 65.010263 
C 59.859847 77.365365 50.058568 92.034016 43.372035 108.176736 
C 36.685502 124.319455 33.24375 141.622309 33.24375 159.095062 
C 33.24375 176.567816 36.685502 193.87067 43.372035 210.013389 
C 50.058568 226.156109 59.859847 240.82476 72.21495 253.179862 
C 84.570053 265.534965 99.238704 275.336244 115.381423 282.022778 
C 131.524143 288.709311 148.826996 292.151062 166.29975 292.151062 
C 183.772504 292.151062 201.075357 288.709311 217.218077 282.022778 
C 233.360796 275.336244 248.029447 265.534965 260.38455 253.179862 
C 272.739653 240.82476 282.540932 226.156109 289.227465 210.013389 
C 295.913998 193.87067 299.35575 176.567816 299.35575 159.095062 
M 166.29975 159.095062 
C 166.29975 159.095062 166.29975 159.095062 166.29975 159.095062 
C 166.29975 159.095062 166.29975 159.095062 166.29975 159.095062 
C 166.29975 159.095062 166.29975 159.095062 166.29975 159.095062 
C 166.29975 159.095062 166.29975 159.095062 166.29975 159.095062 
C 166.29975 159.095062 166.29975 159.095062 166.29975 159.095062 
C 166.29975 159.095062 166.29975 159.095062 166.29975 159.095062 
C 166.29975 159.095062 166.29975 159.095062 166.29975 159.095062 
C 166.29975 159.095062 166.29975 159.095062 166.29975 159.095062 
C 166.29975 159.095062 166.29975 159.095062 166.29975 159.095062 
C 166.29975 159.095062 166.29975 159.095062 166.29975 159.095062 
C 166.29975 159.095062 166.29975 159.095062 166.29975 159.095062 
C 166.29975 159.095062 166.29975 159.095062 166.29975 159.095062 
C 166.29975 159.095062 166.29975 159.095062 166.29975 159.095062 
C 166.29975 159.095062 166.29975 159.095062 166.29975 159.095062 
C 166.29975 159.095062 166.29975 159.095062 166.29975 159.095062 
C 166.29975 159.095062 166.29975 159.095062 166.29975 159.095062 
z
"/>
  </clipPath>
 </defs>
</svg>
