<?xml version="1.0" encoding="UTF-8" standalone="no"?>
<!DOCTYPE svg PUBLIC "-//W3C//DTD SVG 1.1//EN"
 "http://www.w3.org/Graphics/SVG/1.1/DTD/svg11.dtd">
<!-- Generated by graphviz version 2.43.0 (0)
 -->
<!-- Title: g Pages: 1 -->
<svg width="758pt" height="188pt"
 viewBox="0.00 0.00 758.49 188.00" xmlns="http://www.w3.org/2000/svg" xmlns:xlink="http://www.w3.org/1999/xlink">
<g id="graph0" class="graph" transform="scale(1 1) rotate(0) translate(4 184)">
<title>g</title>
<polygon fill="transparent" stroke="transparent" points="-4,4 -4,-184 754.49,-184 754.49,4 -4,4"/>
<!-- elem1 -->
<g id="node1" class="node">
<title>elem1</title>
<polygon fill="#0271bb" stroke="#0271bb" points="232.99,-108 159.99,-108 159.99,-72 232.99,-72 232.99,-108"/>
<text text-anchor="middle" x="196.49" y="-86.3" font-family="Times,serif" font-size="14.00" fill="white">Element 1</text>
</g>
<!-- f1 -->
<g id="node4" class="node">
<title>f1</title>
<ellipse fill="#0271bb" stroke="#0271bb" cx="71.49" cy="-18" rx="71.49" ry="18"/>
<text text-anchor="middle" x="71.49" y="-14.3" font-family="Times,serif" font-size="14.00" fill="white">Frequency grid 1</text>
</g>
<!-- elem1&#45;&gt;f1 -->
<g id="edge4" class="edge">
<title>elem1&#45;&gt;f1</title>
<path fill="none" stroke="black" d="M165.92,-71.88C148.6,-62.18 126.82,-49.98 108.54,-39.75"/>
<polygon fill="black" stroke="black" points="110.05,-36.58 99.62,-34.75 106.63,-42.69 110.05,-36.58"/>
</g>
<!-- w1 -->
<g id="node8" class="node">
<title>w1</title>
<path fill="#0271bb" stroke="#0271bb" d="M220.49,-36C220.49,-36 172.49,-36 172.49,-36 166.49,-36 160.49,-30 160.49,-24 160.49,-24 160.49,-12 160.49,-12 160.49,-6 166.49,0 172.49,0 172.49,0 220.49,0 220.49,0 226.49,0 232.49,-6 232.49,-12 232.49,-12 232.49,-24 232.49,-24 232.49,-30 226.49,-36 220.49,-36"/>
<text text-anchor="middle" x="196.49" y="-14.3" font-family="Times,serif" font-size="14.00" fill="white">Weights 1</text>
</g>
<!-- elem1&#45;&gt;w1 -->
<g id="edge7" class="edge">
<title>elem1&#45;&gt;w1</title>
<path fill="none" stroke="black" d="M196.49,-71.7C196.49,-63.98 196.49,-54.71 196.49,-46.11"/>
<polygon fill="black" stroke="black" points="199.99,-46.1 196.49,-36.1 192.99,-46.1 199.99,-46.1"/>
</g>
<!-- elem2 -->
<g id="node2" class="node">
<title>elem2</title>
<polygon fill="#0271bb" stroke="#0271bb" points="419.99,-108 346.99,-108 346.99,-72 419.99,-72 419.99,-108"/>
<text text-anchor="middle" x="383.49" y="-86.3" font-family="Times,serif" font-size="14.00" fill="white">Element 2</text>
</g>
<!-- f2 -->
<g id="node5" class="node">
<title>f2</title>
<ellipse fill="#0271bb" stroke="#0271bb" cx="321.49" cy="-18" rx="71.49" ry="18"/>
<text text-anchor="middle" x="321.49" y="-14.3" font-family="Times,serif" font-size="14.00" fill="white">Frequency grid 2</text>
</g>
<!-- elem2&#45;&gt;f2 -->
<g id="edge5" class="edge">
<title>elem2&#45;&gt;f2</title>
<path fill="none" stroke="black" d="M368.17,-71.7C360.55,-63.09 351.21,-52.55 342.9,-43.17"/>
<polygon fill="black" stroke="black" points="345.47,-40.79 336.22,-35.62 340.23,-45.43 345.47,-40.79"/>
</g>
<!-- w2 -->
<g id="node9" class="node">
<title>w2</title>
<path fill="#0271bb" stroke="#0271bb" d="M470.49,-36C470.49,-36 422.49,-36 422.49,-36 416.49,-36 410.49,-30 410.49,-24 410.49,-24 410.49,-12 410.49,-12 410.49,-6 416.49,0 422.49,0 422.49,0 470.49,0 470.49,0 476.49,0 482.49,-6 482.49,-12 482.49,-12 482.49,-24 482.49,-24 482.49,-30 476.49,-36 470.49,-36"/>
<text text-anchor="middle" x="446.49" y="-14.3" font-family="Times,serif" font-size="14.00" fill="white">Weights 2</text>
</g>
<!-- elem2&#45;&gt;w2 -->
<g id="edge8" class="edge">
<title>elem2&#45;&gt;w2</title>
<path fill="none" stroke="black" d="M399.07,-71.7C406.7,-63.22 416.02,-52.86 424.37,-43.58"/>
<polygon fill="black" stroke="black" points="427.01,-45.88 431.1,-36.1 421.81,-41.2 427.01,-45.88"/>
</g>
<!-- elemN -->
<g id="node3" class="node">
<title>elemN</title>
<polygon fill="#0271bb" stroke="#0271bb" points="616.99,-108 529.99,-108 529.99,-72 616.99,-72 616.99,-108"/>
<text text-anchor="middle" x="573.49" y="-86.3" font-family="Times,serif" font-size="14.00" fill="white">Element ...N</text>
</g>
<!-- fN -->
<g id="node6" class="node">
<title>fN</title>
<ellipse fill="#0271bb" stroke="#0271bb" cx="573.49" cy="-18" rx="73.39" ry="18"/>
<text text-anchor="middle" x="573.49" y="-14.3" font-family="Times,serif" font-size="14.00" fill="white">Frequency grid N</text>
</g>
<!-- elemN&#45;&gt;fN -->
<g id="edge6" class="edge">
<title>elemN&#45;&gt;fN</title>
<path fill="none" stroke="black" d="M573.49,-71.7C573.49,-63.98 573.49,-54.71 573.49,-46.11"/>
<polygon fill="black" stroke="black" points="576.99,-46.1 573.49,-36.1 569.99,-46.1 576.99,-46.1"/>
</g>
<!-- wN -->
<g id="node10" class="node">
<title>wN</title>
<path fill="#0271bb" stroke="#0271bb" d="M738.49,-36C738.49,-36 676.49,-36 676.49,-36 670.49,-36 664.49,-30 664.49,-24 664.49,-24 664.49,-12 664.49,-12 664.49,-6 670.49,0 676.49,0 676.49,0 738.49,0 738.49,0 744.49,0 750.49,-6 750.49,-12 750.49,-12 750.49,-24 750.49,-24 750.49,-30 744.49,-36 738.49,-36"/>
<text text-anchor="middle" x="707.49" y="-14.3" font-family="Times,serif" font-size="14.00" fill="white">Weights ...N</text>
</g>
<!-- elemN&#45;&gt;wN -->
<g id="edge9" class="edge">
<title>elemN&#45;&gt;wN</title>
<path fill="none" stroke="black" d="M606.27,-71.88C624.12,-62.55 646.39,-50.92 665.5,-40.94"/>
<polygon fill="black" stroke="black" points="667.34,-43.92 674.59,-36.19 664.1,-37.72 667.34,-43.92"/>
</g>
<!-- o0 -->
<g id="node7" class="node">
<title>o0</title>
<ellipse fill="#0271bb" stroke="#0271bb" cx="383.49" cy="-162" rx="89.88" ry="18"/>
<text text-anchor="middle" x="383.49" y="-158.3" font-family="Times,serif" font-size="14.00" fill="white">Observation geometry</text>
</g>
<!-- o0&#45;&gt;elem1 -->
<g id="edge1" class="edge">
<title>o0&#45;&gt;elem1</title>
<path fill="none" stroke="black" d="M333.42,-142.25C301.85,-130.44 261.8,-115.45 233.19,-104.74"/>
<polygon fill="black" stroke="black" points="332.33,-145.58 342.92,-145.81 334.78,-139.03 332.33,-145.58"/>
</g>
<!-- o0&#45;&gt;elem2 -->
<g id="edge2" class="edge">
<title>o0&#45;&gt;elem2</title>
<path fill="none" stroke="black" d="M383.49,-133.67C383.49,-125.05 383.49,-115.79 383.49,-108.1"/>
<polygon fill="black" stroke="black" points="379.99,-133.7 383.49,-143.7 386.99,-133.7 379.99,-133.7"/>
</g>
<!-- o0&#45;&gt;elemN -->
<g id="edge3" class="edge">
<title>o0&#45;&gt;elemN</title>
<path fill="none" stroke="black" d="M434.11,-142.35C463.89,-131.38 501.19,-117.64 529.7,-107.13"/>
<polygon fill="black" stroke="black" points="432.89,-139.07 424.72,-145.81 435.31,-145.64 432.89,-139.07"/>
</g>
</g>
</svg>
