<?xml version="1.0" encoding="UTF-8" standalone="no"?>
<!DOCTYPE svg PUBLIC "-//W3C//DTD SVG 1.1//EN"
 "http://www.w3.org/Graphics/SVG/1.1/DTD/svg11.dtd">
<!-- Generated by graphviz version 14.1.2 (20260126.1125)
 -->
<!-- Title: g Pages: 1 -->
<svg width="356pt" height="188pt"
 viewBox="0.00 0.00 356.00 188.00" xmlns="http://www.w3.org/2000/svg" xmlns:xlink="http://www.w3.org/1999/xlink">
<g id="graph0" class="graph" transform="scale(1 1) rotate(0) translate(4 184)">
<title>g</title>
<polygon fill="none" stroke="none" points="-4,4 -4,-184 352.14,-184 352.14,4 -4,4"/>
<!-- a0 -->
<g id="node1" class="node">
<title>a0</title>
<polygon fill="#0271bb" stroke="#0271bb" points="189.47,-180 126.97,-180 126.97,-144 189.47,-144 189.47,-180"/>
<text xml:space="preserve" text-anchor="middle" x="158.22" y="-156.95" font-family="Times,serif" font-size="14.00" fill="white">key type</text>
</g>
<!-- b0 -->
<g id="node2" class="node">
<title>b0</title>
<ellipse fill="#0271bb" stroke="#0271bb" cx="67.22" cy="-90" rx="67.22" ry="18"/>
<text xml:space="preserve" text-anchor="middle" x="67.22" y="-84.95" font-family="Times,serif" font-size="14.00" fill="white">SubsurfaceKey</text>
</g>
<!-- a0&#45;&gt;b0 -->
<g id="edge1" class="edge">
<title>a0&#45;&gt;b0</title>
<path fill="none" stroke="black" d="M135.72,-143.7C121.3,-132.6 102.7,-118.29 88.52,-107.38"/>
</g>
<!-- b1 -->
<g id="node3" class="node">
<title>b1</title>
<ellipse fill="#0271bb" stroke="#0271bb" cx="250.22" cy="-90" rx="97.93" ry="18"/>
<text xml:space="preserve" text-anchor="middle" x="250.22" y="-84.95" font-family="Times,serif" font-size="14.00" fill="white">SubsurfacePropertyTag</text>
</g>
<!-- a0&#45;&gt;b1 -->
<g id="edge2" class="edge">
<title>a0&#45;&gt;b1</title>
<path fill="none" stroke="black" d="M180.96,-143.7C195.33,-132.77 213.8,-118.71 228.05,-107.86"/>
</g>
<!-- c0 -->
<g id="node4" class="node">
<title>c0</title>
<path fill="#0271bb" stroke="#0271bb" d="M82.22,-36C82.22,-36 52.22,-36 52.22,-36 46.22,-36 40.22,-30 40.22,-24 40.22,-24 40.22,-12 40.22,-12 40.22,-6 46.22,0 52.22,0 52.22,0 82.22,0 82.22,0 88.22,0 94.22,-6 94.22,-12 94.22,-12 94.22,-24 94.22,-24 94.22,-30 88.22,-36 82.22,-36"/>
<text xml:space="preserve" text-anchor="middle" x="67.22" y="-12.95" font-family="Times,serif" font-size="14.00" fill="white">T, rho</text>
</g>
<!-- b0&#45;&gt;c0 -->
<g id="edge3" class="edge">
<title>b0&#45;&gt;c0</title>
<path fill="none" stroke="black" d="M67.22,-71.7C67.22,-64.41 67.22,-55.73 67.22,-47.54"/>
<polygon fill="black" stroke="black" points="70.72,-47.62 67.22,-37.62 63.72,-47.62 70.72,-47.62"/>
</g>
<!-- c1 -->
<g id="node5" class="node">
<title>c1</title>
<path fill="#0271bb" stroke="#0271bb" d="M280.72,-36C280.72,-36 219.72,-36 219.72,-36 213.72,-36 207.72,-30 207.72,-24 207.72,-24 207.72,-12 207.72,-12 207.72,-6 213.72,0 219.72,0 219.72,0 280.72,0 280.72,0 286.72,0 292.72,-6 292.72,-12 292.72,-12 292.72,-24 292.72,-24 292.72,-30 286.72,-36 280.72,-36"/>
<text xml:space="preserve" text-anchor="middle" x="250.22" y="-12.95" font-family="Times,serif" font-size="14.00" fill="white">Custom data</text>
</g>
<!-- b1&#45;&gt;c1 -->
<g id="edge4" class="edge">
<title>b1&#45;&gt;c1</title>
<path fill="none" stroke="black" d="M250.22,-71.7C250.22,-64.41 250.22,-55.73 250.22,-47.54"/>
<polygon fill="black" stroke="black" points="253.72,-47.62 250.22,-37.62 246.72,-47.62 253.72,-47.62"/>
</g>
</g>
</svg>
