<?xml version="1.0" encoding="UTF-8" standalone="no"?>
<!DOCTYPE svg PUBLIC "-//W3C//DTD SVG 1.1//EN"
 "http://www.w3.org/Graphics/SVG/1.1/DTD/svg11.dtd">
<!-- Generated by graphviz version 2.40.1 (20161225.0304)
 -->
<!-- Title: g Pages: 1 -->
<svg width="816pt" height="188pt"
 viewBox="0.00 0.00 815.59 188.00" xmlns="http://www.w3.org/2000/svg" xmlns:xlink="http://www.w3.org/1999/xlink">
<g id="graph0" class="graph" transform="scale(1 1) rotate(0) translate(4 184)">
<title>g</title>
<polygon fill="transparent" stroke="transparent" points="-4,4 -4,-184 811.5882,-184 811.5882,4 -4,4"/>
<!-- Named data -->
<g id="node1" class="node">
<title>Named data</title>
<polygon fill="#0271bb" stroke="#0271bb" points="451.6442,-180 379.6442,-180 379.6442,-144 451.6442,-144 451.6442,-180"/>
<text text-anchor="middle" x="415.6442" y="-158.3" font-family="Times,serif" font-size="14.00" fill="#ffffff">atm_point</text>
</g>
<!-- Access Operator -->
<g id="node2" class="node">
<title>Access Operator</title>
<ellipse fill="#0271bb" stroke="#0271bb" cx="65.6442" cy="-90" rx="65.7887" ry="18"/>
<text text-anchor="middle" x="65.6442" y="-86.3" font-family="Times,serif" font-size="14.00" fill="#ffffff">atm_point[key]</text>
</g>
<!-- Named data&#45;&gt;Access Operator -->
<g id="edge1" class="edge">
<title>Named data&#45;&gt;Access Operator</title>
<path fill="none" stroke="#000000" d="M379.3687,-155.4456C326.5005,-145.7702 225.2505,-126.776 139.6442,-108 131.5078,-106.2155 122.8945,-104.2191 114.5317,-102.2233"/>
</g>
<!-- pressure -->
<g id="node3" class="node">
<title>pressure</title>
<ellipse fill="#0271bb" stroke="#0271bb" cx="227.6442" cy="-90" rx="78.7863" ry="18"/>
<text text-anchor="middle" x="227.6442" y="-86.3" font-family="Times,serif" font-size="14.00" fill="#ffffff">atm_point.pressure</text>
</g>
<!-- Named data&#45;&gt;pressure -->
<g id="edge3" class="edge">
<title>Named data&#45;&gt;pressure</title>
<path fill="none" stroke="#000000" d="M379.3959,-148.1177C347.4925,-135.8993 301.0982,-118.1313 268.0182,-105.4624"/>
</g>
<!-- temperature -->
<g id="node4" class="node">
<title>temperature</title>
<ellipse fill="#0271bb" stroke="#0271bb" cx="415.6442" cy="-90" rx="91.784" ry="18"/>
<text text-anchor="middle" x="415.6442" y="-86.3" font-family="Times,serif" font-size="14.00" fill="#ffffff">atm_point.temperature</text>
</g>
<!-- Named data&#45;&gt;temperature -->
<g id="edge2" class="edge">
<title>Named data&#45;&gt;temperature</title>
<path fill="none" stroke="#000000" d="M415.6442,-143.8314C415.6442,-133 415.6442,-119.2876 415.6442,-108.4133"/>
</g>
<!-- mag -->
<g id="node5" class="node">
<title>mag</title>
<ellipse fill="#0271bb" stroke="#0271bb" cx="590.6442" cy="-90" rx="64.9885" ry="18"/>
<text text-anchor="middle" x="590.6442" y="-86.3" font-family="Times,serif" font-size="14.00" fill="#ffffff">atm_point.mag</text>
</g>
<!-- Named data&#45;&gt;mag -->
<g id="edge4" class="edge">
<title>Named data&#45;&gt;mag</title>
<path fill="none" stroke="#000000" d="M451.9043,-147.0816C481.8385,-134.7658 524.126,-117.3675 554.1299,-105.023"/>
</g>
<!-- wind -->
<g id="node6" class="node">
<title>wind</title>
<ellipse fill="#0271bb" stroke="#0271bb" cx="740.6442" cy="-90" rx="66.8882" ry="18"/>
<text text-anchor="middle" x="740.6442" y="-86.3" font-family="Times,serif" font-size="14.00" fill="#ffffff">atm_point.wind</text>
</g>
<!-- Named data&#45;&gt;wind -->
<g id="edge5" class="edge">
<title>Named data&#45;&gt;wind</title>
<path fill="none" stroke="#000000" d="M451.9806,-154.3458C500.5142,-144.0705 589.1524,-125.1241 664.6442,-108 672.975,-106.1103 681.8082,-104.0606 690.392,-102.044"/>
</g>
<!-- float -->
<g id="node7" class="node">
<title>float</title>
<path fill="#0271bb" stroke="#0271bb" d="M242.6442,-36C242.6442,-36 212.6442,-36 212.6442,-36 206.6442,-36 200.6442,-30 200.6442,-24 200.6442,-24 200.6442,-12 200.6442,-12 200.6442,-6 206.6442,0 212.6442,0 212.6442,0 242.6442,0 242.6442,0 248.6442,0 254.6442,-6 254.6442,-12 254.6442,-12 254.6442,-24 254.6442,-24 254.6442,-30 248.6442,-36 242.6442,-36"/>
<text text-anchor="middle" x="227.6442" y="-14.3" font-family="Times,serif" font-size="14.00" fill="#ffffff">float</text>
</g>
<!-- Access Operator&#45;&gt;float -->
<g id="edge6" class="edge">
<title>Access Operator&#45;&gt;float</title>
<path fill="none" stroke="#000000" d="M100.3972,-74.5542C127.1764,-62.6523 164.0976,-46.2429 191.274,-34.1645"/>
<polygon fill="#000000" stroke="#000000" points="192.7311,-37.3471 200.4477,-30.0873 189.8881,-30.9504 192.7311,-37.3471"/>
</g>
<!-- pressure&#45;&gt;float -->
<g id="edge7" class="edge">
<title>pressure&#45;&gt;float</title>
<path fill="none" stroke="#000000" d="M227.6442,-71.8314C227.6442,-64.131 227.6442,-54.9743 227.6442,-46.4166"/>
<polygon fill="#000000" stroke="#000000" points="231.1443,-46.4132 227.6442,-36.4133 224.1443,-46.4133 231.1443,-46.4132"/>
</g>
<!-- temperature&#45;&gt;float -->
<g id="edge8" class="edge">
<title>temperature&#45;&gt;float</title>
<path fill="none" stroke="#000000" d="M373.4533,-73.8418C340.7282,-61.3088 295.8198,-44.1098 264.5213,-32.1231"/>
<polygon fill="#000000" stroke="#000000" points="265.4607,-28.7351 254.8703,-28.427 262.9571,-35.2721 265.4607,-28.7351"/>
</g>
<!-- Vector3 -->
<g id="node8" class="node">
<title>Vector3</title>
<path fill="#0271bb" stroke="#0271bb" d="M683.6442,-36C683.6442,-36 647.6442,-36 647.6442,-36 641.6442,-36 635.6442,-30 635.6442,-24 635.6442,-24 635.6442,-12 635.6442,-12 635.6442,-6 641.6442,0 647.6442,0 647.6442,0 683.6442,0 683.6442,0 689.6442,0 695.6442,-6 695.6442,-12 695.6442,-12 695.6442,-24 695.6442,-24 695.6442,-30 689.6442,-36 683.6442,-36"/>
<text text-anchor="middle" x="665.6442" y="-14.3" font-family="Times,serif" font-size="14.00" fill="#ffffff">Vector3</text>
</g>
<!-- mag&#45;&gt;Vector3 -->
<g id="edge9" class="edge">
<title>mag&#45;&gt;Vector3</title>
<path fill="none" stroke="#000000" d="M608.7996,-72.5708C617.989,-63.749 629.3125,-52.8784 639.4281,-43.1674"/>
<polygon fill="#000000" stroke="#000000" points="642.0827,-45.4708 646.8727,-36.0206 637.235,-40.4211 642.0827,-45.4708"/>
</g>
<!-- wind&#45;&gt;Vector3 -->
<g id="edge10" class="edge">
<title>wind&#45;&gt;Vector3</title>
<path fill="none" stroke="#000000" d="M722.4888,-72.5708C713.2994,-63.749 701.9759,-52.8784 691.8603,-43.1674"/>
<polygon fill="#000000" stroke="#000000" points="694.0534,-40.4211 684.4156,-36.0206 689.2057,-45.4708 694.0534,-40.4211"/>
</g>
</g>
</svg>
