<?xml version="1.0" encoding="UTF-8" standalone="no"?>
<!DOCTYPE svg PUBLIC "-//W3C//DTD SVG 1.1//EN"
 "http://www.w3.org/Graphics/SVG/1.1/DTD/svg11.dtd">
<!-- Generated by graphviz version 14.1.2 (20260126.1125)
 -->
<!-- Title: g Pages: 1 -->
<svg width="487pt" height="257pt"
 viewBox="0.00 0.00 487.00 257.00" xmlns="http://www.w3.org/2000/svg" xmlns:xlink="http://www.w3.org/1999/xlink">
<g id="graph0" class="graph" transform="scale(1 1) rotate(0) translate(4 252.65)">
<title>g</title>
<polygon fill="none" stroke="none" points="-4,4 -4,-252.65 482.58,-252.65 482.58,4 -4,4"/>
<!-- Named data -->
<g id="node1" class="node">
<title>Named data</title>
<polygon fill="#0271bb" stroke="#0271bb" points="258.25,-248.65 192,-248.65 192,-212.65 258.25,-212.65 258.25,-248.65"/>
<text xml:space="preserve" text-anchor="middle" x="225.12" y="-225.6" font-family="Times,serif" font-size="14.00" fill="white">surf_data</text>
</g>
<!-- Data variant -->
<g id="node2" class="node">
<title>Data variant</title>
<ellipse fill="#0271bb" stroke="#0271bb" cx="63.12" cy="-124.33" rx="63.12" ry="18"/>
<text xml:space="preserve" text-anchor="middle" x="63.12" y="-119.28" font-family="Times,serif" font-size="14.00" fill="white">surf_data.data</text>
</g>
<!-- Named data&#45;&gt;Data variant -->
<g id="edge1" class="edge">
<title>Named data&#45;&gt;Data variant</title>
<path fill="none" stroke="black" d="M193.89,-212.15C176.39,-202.13 154.29,-189.09 135.12,-176.65 117.87,-165.45 98.95,-151.91 84.84,-141.55"/>
</g>
<!-- Extrapolation settings -->
<g id="node3" class="node">
<title>Extrapolation settings</title>
<ellipse fill="#0271bb" stroke="#0271bb" cx="225.12" cy="-124.33" rx="80.79" ry="52.33"/>
<text xml:space="preserve" text-anchor="start" x="177.87" y="-144.03" font-family="Times,serif" font-size="14.00" fill="white">surf_data.lat_upp</text>
<text xml:space="preserve" text-anchor="start" x="177.87" y="-127.53" font-family="Times,serif" font-size="14.00" fill="white">surf_data.lat_low</text>
<text xml:space="preserve" text-anchor="start" x="176" y="-111.03" font-family="Times,serif" font-size="14.00" fill="white">surf_data.lon_upp</text>
<text xml:space="preserve" text-anchor="start" x="176" y="-94.53" font-family="Times,serif" font-size="14.00" fill="white">surf_data.lon_low</text>
</g>
<!-- Named data&#45;&gt;Extrapolation settings -->
<g id="edge2" class="edge">
<title>Named data&#45;&gt;Extrapolation settings</title>
<path fill="none" stroke="black" d="M225.12,-212.42C225.12,-202.59 225.12,-189.68 225.12,-176.83"/>
</g>
<!-- Call operator &#45;&gt; float -->
<g id="node4" class="node">
<title>Call operator &#45;&gt; float</title>
<ellipse fill="#0271bb" stroke="#0271bb" cx="401.12" cy="-124.33" rx="77.45" ry="18"/>
<text xml:space="preserve" text-anchor="middle" x="401.12" y="-119.28" font-family="Times,serif" font-size="14.00" fill="white">surf_data(lat, lon)</text>
</g>
<!-- Named data&#45;&gt;Call operator &#45;&gt; float -->
<g id="edge3" class="edge">
<title>Named data&#45;&gt;Call operator &#45;&gt; float</title>
<path fill="none" stroke="black" d="M254.74,-212.27C272.31,-201.95 295,-188.58 315.12,-176.65 334.87,-164.95 357.11,-151.67 374.03,-141.55"/>
</g>
<!-- The variant data -->
<g id="node5" class="node">
<title>The variant data</title>
<path fill="#0271bb" stroke="#0271bb" d="M96.25,-36C96.25,-36 30,-36 30,-36 24,-36 18,-30 18,-24 18,-24 18,-12 18,-12 18,-6 24,0 30,0 30,0 96.25,0 96.25,0 102.25,0 108.25,-6 108.25,-12 108.25,-12 108.25,-24 108.25,-24 108.25,-30 102.25,-36 96.25,-36"/>
<text xml:space="preserve" text-anchor="middle" x="63.12" y="-12.95" font-family="Times,serif" font-size="14.00" fill="white">The data type</text>
</g>
<!-- Data variant&#45;&gt;The variant data -->
<g id="edge4" class="edge">
<title>Data variant&#45;&gt;The variant data</title>
<path fill="none" stroke="black" d="M63.12,-106.1C63.12,-90.24 63.12,-66.41 63.12,-47.69"/>
<polygon fill="black" stroke="black" points="66.62,-47.77 63.12,-37.77 59.62,-47.77 66.62,-47.77"/>
</g>
<!-- Type of extrapolation -->
<g id="node6" class="node">
<title>Type of extrapolation</title>
<path fill="#0271bb" stroke="#0271bb" d="M280.37,-36C280.37,-36 169.87,-36 169.87,-36 163.87,-36 157.87,-30 157.87,-24 157.87,-24 157.87,-12 157.87,-12 157.87,-6 163.87,0 169.87,0 169.87,0 280.37,0 280.37,0 286.37,0 292.37,-6 292.37,-12 292.37,-12 292.37,-24 292.37,-24 292.37,-30 286.37,-36 280.37,-36"/>
<text xml:space="preserve" text-anchor="middle" x="225.12" y="-12.95" font-family="Times,serif" font-size="14.00" fill="white">Extrapolation settings</text>
</g>
<!-- Extrapolation settings&#45;&gt;Type of extrapolation -->
<g id="edge5" class="edge">
<title>Extrapolation settings&#45;&gt;Type of extrapolation</title>
<path fill="none" stroke="black" d="M225.12,-71.77C225.12,-63.52 225.12,-55.24 225.12,-47.77"/>
<polygon fill="black" stroke="black" points="228.62,-47.98 225.12,-37.98 221.62,-47.98 228.62,-47.98"/>
</g>
<!-- float -->
<g id="node7" class="node">
<title>float</title>
<path fill="#0271bb" stroke="#0271bb" d="M460.12,-36C460.12,-36 342.12,-36 342.12,-36 336.12,-36 330.12,-30 330.12,-24 330.12,-24 330.12,-12 330.12,-12 330.12,-6 336.12,0 342.12,0 342.12,0 460.12,0 460.12,0 466.12,0 472.12,-6 472.12,-12 472.12,-12 472.12,-24 472.12,-24 472.12,-30 466.12,-36 460.12,-36"/>
<text xml:space="preserve" text-anchor="middle" x="401.12" y="-12.95" font-family="Times,serif" font-size="14.00" fill="white">Point&#45;wise data; a float</text>
</g>
<!-- Call operator &#45;&gt; float&#45;&gt;float -->
<g id="edge6" class="edge">
<title>Call operator &#45;&gt; float&#45;&gt;float</title>
<path fill="none" stroke="black" d="M401.12,-106.1C401.12,-90.24 401.12,-66.41 401.12,-47.69"/>
<polygon fill="black" stroke="black" points="404.62,-47.77 401.12,-37.77 397.62,-47.77 404.62,-47.77"/>
</g>
</g>
</svg>
