<?xml version="1.0" encoding="UTF-8" standalone="no"?>
<!DOCTYPE svg PUBLIC "-//W3C//DTD SVG 1.1//EN"
 "http://www.w3.org/Graphics/SVG/1.1/DTD/svg11.dtd">
<!-- Generated by graphviz version 2.40.1 (20161225.0304)
 -->
<!-- Title: g Pages: 1 -->
<svg width="313pt" height="188pt"
 viewBox="0.00 0.00 313.24 188.00" xmlns="http://www.w3.org/2000/svg" xmlns:xlink="http://www.w3.org/1999/xlink">
<g id="graph0" class="graph" transform="scale(1 1) rotate(0) translate(4 184)">
<title>g</title>
<polygon fill="transparent" stroke="transparent" points="-4,4 -4,-184 309.2428,-184 309.2428,4 -4,4"/>
<!-- a0 -->
<g id="node1" class="node">
<title>a0</title>
<polygon fill="#0271bb" stroke="#0271bb" points="179.5,-180 116.5,-180 116.5,-144 179.5,-144 179.5,-180"/>
<text text-anchor="middle" x="148" y="-158.3" font-family="Times,serif" font-size="14.00" fill="#ffffff">key type</text>
</g>
<!-- b0 -->
<g id="node2" class="node">
<title>b0</title>
<ellipse fill="#0271bb" stroke="#0271bb" cx="73" cy="-90" rx="51.9908" ry="18"/>
<text text-anchor="middle" x="73" y="-86.3" font-family="Times,serif" font-size="14.00" fill="#ffffff">SurfaceKey</text>
</g>
<!-- a0&#45;&gt;b0 -->
<g id="edge1" class="edge">
<title>a0&#45;&gt;b0</title>
<path fill="none" stroke="#000000" d="M129.0743,-143.8314C117.3577,-132.5834 102.4047,-118.2285 90.8869,-107.1715"/>
</g>
<!-- b1 -->
<g id="node3" class="node">
<title>b1</title>
<ellipse fill="#0271bb" stroke="#0271bb" cx="224" cy="-90" rx="81.4863" ry="18"/>
<text text-anchor="middle" x="224" y="-86.3" font-family="Times,serif" font-size="14.00" fill="#ffffff">SurfacePropertyTag</text>
</g>
<!-- a0&#45;&gt;b1 -->
<g id="edge2" class="edge">
<title>a0&#45;&gt;b1</title>
<path fill="none" stroke="#000000" d="M167.178,-143.8314C178.8749,-132.7501 193.755,-118.6532 205.3536,-107.665"/>
</g>
<!-- c0 -->
<g id="node4" class="node">
<title>c0</title>
<path fill="#0271bb" stroke="#0271bb" d="M134,-36C134,-36 12,-36 12,-36 6,-36 0,-30 0,-24 0,-24 0,-12 0,-12 0,-6 6,0 12,0 12,0 134,0 134,0 140,0 146,-6 146,-12 146,-12 146,-24 146,-24 146,-30 140,-36 134,-36"/>
<text text-anchor="middle" x="73" y="-14.3" font-family="Times,serif" font-size="14.00" fill="#ffffff">Temperature, Elevation</text>
</g>
<!-- b0&#45;&gt;c0 -->
<g id="edge3" class="edge">
<title>b0&#45;&gt;c0</title>
<path fill="none" stroke="#000000" d="M73,-71.8314C73,-64.131 73,-54.9743 73,-46.4166"/>
<polygon fill="#000000" stroke="#000000" points="76.5001,-46.4132 73,-36.4133 69.5001,-46.4133 76.5001,-46.4132"/>
</g>
<!-- c1 -->
<g id="node5" class="node">
<title>c1</title>
<path fill="#0271bb" stroke="#0271bb" d="M256.5,-36C256.5,-36 191.5,-36 191.5,-36 185.5,-36 179.5,-30 179.5,-24 179.5,-24 179.5,-12 179.5,-12 179.5,-6 185.5,0 191.5,0 191.5,0 256.5,0 256.5,0 262.5,0 268.5,-6 268.5,-12 268.5,-12 268.5,-24 268.5,-24 268.5,-30 262.5,-36 256.5,-36"/>
<text text-anchor="middle" x="224" y="-14.3" font-family="Times,serif" font-size="14.00" fill="#ffffff">Custom Data</text>
</g>
<!-- b1&#45;&gt;c1 -->
<g id="edge4" class="edge">
<title>b1&#45;&gt;c1</title>
<path fill="none" stroke="#000000" d="M224,-71.8314C224,-64.131 224,-54.9743 224,-46.4166"/>
<polygon fill="#000000" stroke="#000000" points="227.5001,-46.4132 224,-36.4133 220.5001,-46.4133 227.5001,-46.4132"/>
</g>
</g>
</svg>
